<svg width="139" height="32" viewBox="0 0 139 32" fill="none" xmlns="http://www.w3.org/2000/svg">
<g clip-path="url(#clip0_50_2577)">
<path d="M15.8578 16.6203H9.33904L7.67661 15.8871C5.79984 15.2586 4.3626 14.316 3.36356 13.0588C2.3762 11.8016 1.8822 10.2014 1.8822 8.25737C1.8822 6.54675 2.23908 5.11487 2.95235 3.96273C3.67632 2.79859 4.6966 1.91985 6.01368 1.32636C7.34145 0.732871 8.91615 0.435959 10.7378 0.435959H19.1V25.8562H14.1453V4.53888H10.7378C9.38826 4.53888 8.39498 4.89398 7.75826 5.60383C7.12202 6.31369 6.80382 7.32079 6.80382 8.62414C6.80382 9.57872 6.95198 10.3644 7.24828 10.9809C7.54459 11.5861 7.97802 12.04 8.5484 12.3426C9.11929 12.634 9.83782 12.7794 10.7052 12.7794H15.8405L15.8574 16.6201L15.8578 16.6203ZM11.1002 14.5077L5.78338 25.8562H0.433594L5.76692 14.5077H11.1002Z" fill="#EF7800"/>
<path d="M29.8327 25.9672C28.3041 25.9672 26.9063 25.5838 25.6394 24.8176C24.3726 24.0514 23.3671 23.0073 22.6242 21.6859C21.8808 20.3646 21.5088 18.9045 21.5088 17.3051C21.5088 15.7062 21.8813 14.2501 22.6242 12.9409C23.3663 11.6313 24.3726 10.5975 25.6394 9.84228C26.9063 9.08741 28.3041 8.70981 29.8327 8.70981C31.3613 8.70981 32.7022 9.07158 33.853 9.79277C35.0042 10.514 35.9158 11.5084 36.5859 12.7744L33.6333 15.2065C33.1518 14.4512 32.6117 13.8618 32.0158 13.4404C31.4194 13.0195 30.7119 12.8077 29.8952 12.8077C28.7021 12.8077 27.7228 13.2353 26.9585 14.0902C26.1942 14.9451 25.8118 16.0173 25.8118 17.3053C25.8118 18.6158 26.195 19.6991 26.9585 20.5536C27.722 21.4077 28.7019 21.8361 29.8952 21.8361C30.6913 21.8361 31.3881 21.6297 31.984 21.2196C32.5804 20.8099 33.1307 20.2259 33.6333 19.4707L36.5859 21.8695C35.916 23.1353 34.9989 24.1354 33.8374 24.8678C32.6759 25.6001 31.3404 25.9674 29.8327 25.9674V25.9672ZM42.4197 12.8743H37.9931V9.07658H51.4564L49.6013 12.8743H46.6284V25.5671H42.4195V12.8743H42.4197ZM62.0572 8.70981C63.5018 8.70981 64.7953 9.08208 65.9363 9.82611C67.0776 10.5701 67.9727 11.5922 68.6218 12.8911C69.2712 14.1899 69.5957 15.6617 69.5957 17.3053C69.5957 18.9484 69.2701 20.4264 68.6218 21.7361C67.9736 23.0453 67.0776 24.0791 65.9363 24.8344C64.7953 25.5893 63.5018 25.9674 62.0572 25.9674C61.1146 25.9674 60.2457 25.7952 59.4502 25.4509C58.6541 25.1067 57.9737 24.6122 57.4083 23.9682V31.5641H53.1682V9.07658H57.0626V11.142C57.5866 10.3646 58.2834 9.76393 59.1519 9.34298C60.0196 8.92204 60.9891 8.70981 62.0573 8.70981H62.0572ZM61.2718 21.8695C62.4029 21.8695 63.3561 21.4519 64.1298 20.6203C64.904 19.7879 65.2921 18.6933 65.2921 17.3386C65.2921 15.9619 64.9103 14.8568 64.1459 14.0236C63.3816 13.1907 62.4234 12.7744 61.2718 12.7744C60.2038 12.7744 59.2814 13.1587 58.5076 13.924C57.7337 14.6889 57.3452 15.8172 57.3452 17.3053C57.3452 18.7713 57.728 19.898 58.4919 20.6865C59.2562 21.4752 60.1832 21.8695 61.2718 21.8695ZM79.5276 25.9336C77.999 25.9336 76.6 25.5496 75.3344 24.7844C74.0684 24.0195 73.067 22.9746 72.3343 21.6533C71.6016 20.3319 71.235 18.8822 71.235 17.3053C71.235 15.7283 71.603 14.2778 72.3343 12.9578C73.0662 11.6373 74.0737 10.5965 75.3496 9.84245C76.6263 9.08875 78.0301 8.70998 79.5589 8.70998C81.0875 8.70998 82.4918 9.09425 83.7678 9.85962C85.044 10.6245 86.0571 11.6653 86.7991 12.9746C87.5412 14.2835 87.9141 15.7285 87.9141 17.3054C87.9141 18.8824 87.5424 20.3321 86.7991 21.6534C86.0562 22.9748 85.0387 24.0197 83.7521 24.7846C82.4655 25.55 81.0562 25.9337 79.5276 25.9337V25.9336ZM79.5589 21.8028C80.7106 21.8028 81.6688 21.3805 82.4331 20.5365C83.1974 19.6927 83.5793 18.6266 83.5793 17.3386C83.5793 16.0503 83.1961 14.9718 82.4331 14.1074C81.6699 13.242 80.7106 12.8077 79.5589 12.8077C78.3864 12.8077 77.4224 13.2353 76.6691 14.0902C75.9155 14.9451 75.5381 16.0281 75.5381 17.3386C75.5381 18.6266 75.915 19.6929 76.6691 20.5365C77.4227 21.3805 78.3862 21.8028 79.5589 21.8028ZM104.828 8.70981V25.5671H100.587V16.6388L91.9178 25.9674H90.536V9.07674H94.7449V18.0715L103.446 8.70998H104.827L104.828 8.70981ZM118.613 25.5671L112.457 16.8388V25.5671H108.248V9.07658H112.457V16.7721L118.331 9.07658H123.137L117.263 16.6057L123.639 25.5671H118.613H118.613ZM131.774 8.70981C133.806 8.70981 135.428 9.31964 136.627 10.5255C137.828 11.7318 138.433 13.4938 138.433 15.7725V25.5671H134.539V23.9682C133.973 24.59 133.287 25.0795 132.481 25.4338C131.675 25.7885 130.78 25.9672 129.796 25.9672C128.141 25.9672 126.832 25.5054 125.87 24.5842C124.907 23.6635 124.424 22.48 124.424 21.0361C124.424 19.548 124.957 18.3722 126.011 17.5218C127.064 16.6711 128.497 16.2388 130.298 16.2388H134.193V15.506C134.193 14.5952 133.943 13.8804 133.455 13.3739C132.967 12.8674 132.246 12.6077 131.303 12.6077C130.508 12.6077 129.795 12.7911 129.167 13.1575C128.539 13.5239 127.88 14.0954 127.189 14.8731L124.99 12.1079C126.791 9.84195 129.052 8.70948 131.774 8.70948V8.70981ZM130.926 22.6689C131.848 22.6689 132.627 22.3596 133.251 21.7526C133.875 21.1458 134.193 20.3592 134.193 19.4042V19.2041H130.864C130.181 19.2041 129.635 19.3471 129.262 19.6205C128.889 19.8936 128.696 20.3146 128.696 20.8697C128.696 21.4249 128.901 21.8643 129.309 22.1856C129.717 22.507 130.257 22.6687 130.926 22.6687L130.926 22.6689Z" fill="#373435"/>
<path fill-rule="evenodd" clip-rule="evenodd" d="M97.4375 3.31855H103.661L97.4375 10.7192V3.31855Z" fill="#EF7800"/>
</g>
<defs>
<clipPath id="clip0_50_2577">
<rect width="138" height="31.1278" fill="white" transform="translate(0.433594 0.43609)"/>
</clipPath>
</defs>
</svg>
