<svg width="13" height="10" viewBox="0 0 13 10" fill="none" xmlns="http://www.w3.org/2000/svg">
<path d="M11.9166 1.50002H9.20832V1C9.20832 0.448499 8.72248 0 8.12498 0H4.87499C4.27752 0 3.79165 0.448475 3.79165 1V1.5H1.08334C0.485849 1.50002 1.12615e-08 1.94849 1.12615e-08 2.5V3.99999C1.12615e-08 4.55152 0.485849 5 1.08334 5H5.41667V4.74999C5.41665 4.71715 5.42364 4.68464 5.43724 4.65429C5.45085 4.62395 5.47079 4.59638 5.49595 4.57316C5.5211 4.54994 5.55097 4.53153 5.58384 4.51897C5.61671 4.50642 5.65194 4.49996 5.68751 4.49999H7.31251C7.34809 4.49996 7.38332 4.50642 7.41619 4.51897C7.44906 4.53153 7.47892 4.54994 7.50408 4.57316C7.52923 4.59638 7.54918 4.62395 7.56278 4.65429C7.57639 4.68464 7.58338 4.71715 7.58335 4.74999V5H11.9167C12.5141 5 13 4.55152 13 3.99999V2.5C13 1.94849 12.5141 1.50002 11.9166 1.50002ZM8.12498 1.50002H4.87499V1H8.12498V1.50002ZM12.8497 5.26976C12.8046 5.2491 12.7541 5.24046 12.7039 5.24482C12.6537 5.24917 12.6059 5.26635 12.5657 5.29442C12.3731 5.42895 12.1488 5.49999 11.9166 5.49999H7.58333V6.24999C7.58335 6.28282 7.57636 6.31535 7.56276 6.34569C7.54916 6.37603 7.52921 6.4036 7.50405 6.42682C7.4789 6.45004 7.44903 6.46845 7.41616 6.48101C7.38329 6.49357 7.34806 6.50002 7.31249 6.49999H5.68749C5.65192 6.50002 5.61669 6.49357 5.58382 6.48101C5.55094 6.46845 5.52108 6.45004 5.49592 6.42682C5.47077 6.4036 5.45082 6.37603 5.43722 6.34569C5.42361 6.31535 5.41662 6.28282 5.41665 6.24999V5.49999H1.08334C0.851117 5.49999 0.626843 5.42895 0.43428 5.29442C0.394202 5.26613 0.346311 5.24882 0.296079 5.24446C0.245847 5.2401 0.1953 5.24887 0.150211 5.26976C0.105081 5.29048 0.067112 5.32242 0.0405747 5.36197C0.0140374 5.40153 -1.45218e-05 5.44714 1.12615e-08 5.49366V8.99999C1.12615e-08 9.5515 0.485849 10 1.08334 10H11.9167C12.5141 10 13 9.55152 13 8.99999V5.49366C13 5.44713 12.9859 5.40152 12.9594 5.36197C12.9329 5.32241 12.8949 5.29048 12.8497 5.26976Z" fill="white"/>
</svg>
