<svg width="12" height="16" viewBox="0 0 12 16" fill="none" xmlns="http://www.w3.org/2000/svg">
<path fill-rule="evenodd" clip-rule="evenodd" d="M5.90216 0.5C2.88502 0.5 0.433594 2.8494 0.433594 5.74096C0.433594 5.98193 0.433594 6.16265 0.496451 6.40361C0.936451 10.5 5.58788 15.259 5.58788 15.259C5.65074 15.3193 5.77645 15.3795 5.83931 15.4398L5.96502 15.5L6.09074 15.4398C6.15359 15.3795 6.21645 15.3193 6.34216 15.259C6.34216 15.259 10.8679 10.5 11.3707 6.40361C11.3707 6.16265 11.4336 5.98193 11.4336 5.74096C11.4336 2.8494 8.98216 0.5 5.96502 0.5H5.90216ZM5.90216 9.1747C3.95359 9.1747 2.38217 7.66867 2.38217 5.8012C2.38217 3.93373 3.95359 2.42771 5.90216 2.42771C7.85074 2.42771 9.42216 3.93373 9.42216 5.8012C9.42216 7.66867 7.85074 9.1747 5.90216 9.1747Z" fill="#EF7700"/>
</svg>
