<svg width="14" height="12" viewBox="0 0 14 12" fill="none" xmlns="http://www.w3.org/2000/svg">
<path fill-rule="evenodd" clip-rule="evenodd" d="M0.699784 1.49961H13.3002C14 1.49961 14 0.749805 14 0.749805C14 8.86734e-08 13.3002 0 13.3002 0H0.699784C0 0 0 0.749805 0 0.749805C0 1.49961 0.699784 1.49961 0.699784 1.49961ZM13.3002 5.24958H0.699784C0 5.24958 0 5.99939 0 5.99939C0 6.74919 0.699784 6.74919 0.699784 6.74919H13.3002C14 6.74919 14 5.99939 14 5.99939C14 5.24958 13.3002 5.24958 13.3002 5.24958ZM13.3002 10.5004H0.699784C0 10.5004 0 11.2502 0 11.2502C0 12 0.699784 12 0.699784 12H13.3002C14 12 14 11.2502 14 11.2502C14 10.5004 13.3002 10.5004 13.3002 10.5004Z" fill="white"/>
</svg>
