<svg width="15" height="14" viewBox="0 0 15 14" fill="none" xmlns="http://www.w3.org/2000/svg">
<path fill-rule="evenodd" clip-rule="evenodd" d="M4.26359 11.202C3.48751 11.202 2.87482 11.8249 2.87482 12.601C2.87482 13.3771 3.49772 14 4.26359 14C5.03966 14 5.66257 13.3771 5.66257 12.601C5.66257 11.8249 5.03966 11.202 4.26359 11.202Z" fill="white"/>
<path fill-rule="evenodd" clip-rule="evenodd" d="M5.03966 7.7097H10.2475C10.7683 7.7097 11.2278 7.42378 11.4729 6.98468L13.9747 2.44055C14.0258 2.33844 14.0666 2.22611 14.0666 2.10357C14.0666 1.71554 13.7501 1.39898 13.3621 1.39898H3.01778L2.35403 0H0.0666504V1.39898H1.46563L3.97766 6.70897L3.02799 8.42451C2.91567 8.62874 2.8544 8.85339 2.8544 9.09847C2.8544 9.87454 3.4773 10.4974 4.25338 10.4974H12.6472V9.09847H4.54951C4.44739 9.09847 4.37591 9.01678 4.37591 8.92487C4.37591 8.89424 4.38612 8.8636 4.39634 8.84318L5.01924 7.69949L5.03966 7.7097Z" fill="white"/>
<path fill-rule="evenodd" clip-rule="evenodd" d="M11.2585 11.202C10.4824 11.202 9.86971 11.8249 9.86971 12.601C9.86971 13.3771 10.4926 14 11.2585 14C12.0346 14 12.6575 13.3771 12.6575 12.601C12.6575 11.8249 12.0346 11.202 11.2585 11.202Z" fill="white"/>
</svg>
