<svg width="13" height="14" viewBox="0 0 13 14" fill="none" xmlns="http://www.w3.org/2000/svg">
<path fill-rule="evenodd" clip-rule="evenodd" d="M0.56665 11.2388C0.56665 12.1998 0.627737 12.8419 1.41591 13.4753C1.57235 13.6014 1.78541 13.7275 1.9791 13.8014C2.25325 13.9072 2.5855 14 2.955 14H10.1782C10.5313 14 10.8874 13.9159 11.1347 13.8101C11.3984 13.6971 11.6458 13.5695 11.8573 13.3652C12.5933 12.6564 12.5665 12.0389 12.5665 11.1287C12.5665 10.5721 12.4637 9.97639 12.3535 9.50388C12.121 8.51537 11.616 7.48193 10.6386 7.01667C10.272 6.84274 9.83698 6.75287 9.39149 6.75287C8.77168 6.75287 7.41138 8.63133 4.97833 7.40946C4.57754 7.20799 4.11417 6.75287 3.65825 6.75287C1.99698 6.75287 1.05833 8.13128 0.77524 9.55316C0.721603 9.81986 0.664986 10.0779 0.630717 10.3431C0.593469 10.6373 0.56665 10.9243 0.56665 11.2374V11.2388ZM3.01162 3.20033C3.01162 3.63081 3.00417 3.81924 3.11741 4.24537C3.15018 4.36857 3.177 4.43959 3.21872 4.55699L3.41092 4.97153C4.26018 6.48618 6.14047 7.179 7.89113 6.46878C8.1176 6.37602 8.50498 6.14266 8.68229 5.98178C9.0801 5.62087 9.39149 5.31939 9.63584 4.8034C10.3421 3.31629 9.85337 1.62046 8.53329 0.643545C8.20253 0.398592 7.79578 0.210167 7.39648 0.108707C7.1566 0.0463816 6.89884 0.010146 6.63811 0H6.30436C5.83652 0.0188425 5.37316 0.121752 4.98727 0.308728C3.88919 0.842116 3.01013 1.97557 3.01013 3.19888L3.01162 3.20033Z" fill="#262424"/>
</svg>
